<svg width="24" height="24" viewBox="0 0 24 24" fill="none" xmlns="http://www.w3.org/2000/svg">
<g clip-path="url(#clip0_407_645)">
<mask id="path-1-inside-1_407_645" fill="white">
<path d="M4.71094 15.9563L9.43125 13.3079L9.51094 13.0782L9.43125 12.9516H9.20156L8.40937 12.9047L5.70938 12.8297L3.375 12.7313L1.10625 12.6094L0.534375 12.4875L0 11.7844L0.05625 11.4329L0.534375 11.1141L1.21875 11.175L2.7375 11.2782L5.01562 11.4375L6.66562 11.536L9.1125 11.7891H9.50156L9.55781 11.6344L9.42188 11.536L9.31875 11.4375L6.96094 9.8438L4.41094 8.1563L3.075 7.18599L2.35313 6.6938L1.9875 6.22974L1.82812 5.22192L2.48438 4.50005L3.36563 4.56099L3.59062 4.62192L4.48594 5.3063L6.39375 6.78286L8.88281 8.61567L9.24844 8.92036L9.39375 8.81724L9.4125 8.74224L9.24844 8.47036L7.89375 6.02349L6.45 3.53442L5.80781 2.50317L5.63906 1.87505C5.57344 1.63599 5.54062 1.39224 5.53594 1.1438L6.28594 0.131299L6.69844 -0.00463867L7.69219 0.131299L8.11406 0.496924L8.73281 1.91255L9.73594 4.1438L11.2922 7.17192L11.7469 8.07192L11.9906 8.90161L12.0797 9.15474H12.2391V9.00942L12.3656 7.30317L12.6047 5.20786L12.8344 2.51255L12.9141 1.75317L13.2891 0.843799L14.0344 0.351611L14.6203 0.632861L15.0984 1.31724L15.0328 1.76255L14.7469 3.61411L14.1891 6.51567L13.8234 8.4563H14.0344L14.2781 8.21255L15.2625 6.90474L16.9125 4.84224L17.6437 4.02192L18.4922 3.11724L19.0406 2.68599H20.0719L20.8312 3.81567L20.4891 4.98286L19.425 6.32817L18.5438 7.47192L17.2781 9.17349L16.4859 10.5329L16.5609 10.6407L16.7484 10.6219L19.6031 10.0172L21.1453 9.73599L22.9875 9.42192L23.8219 9.81099L23.9109 10.2047L23.5828 11.011L21.6141 11.4985L19.3031 11.9625L15.8625 12.7735L15.8203 12.8016L15.8672 12.8625L17.4141 13.0079L18.075 13.0454H19.6969L22.7156 13.2704L23.5078 13.7907L23.9813 14.4282L23.9016 14.911L22.6875 15.5297L21.0469 15.1407L17.2172 14.2313L15.9047 13.9032H15.7219V14.011L16.8141 15.0797L18.8203 16.8891L21.3281 19.2188L21.4547 19.7954L21.1312 20.25L20.7891 20.2032L18.5859 18.5485L17.7328 17.8032L15.8063 16.1813H15.6797V16.35L16.125 16.9969L18.4688 20.5172L18.5906 21.5954L18.4219 21.9469L17.8125 22.1579L17.1422 22.036L15.7969 20.1282L14.3812 17.9625L13.2375 16.0172L13.0969 16.0969L12.4219 23.3532L12.1078 23.7235L11.3766 24.0047L10.7719 23.5454L10.4484 22.8L10.7719 21.3235L11.1609 19.4016L11.475 17.8735L11.7609 15.975L11.9297 15.3422L11.9156 15.3L11.775 15.3188L10.3406 17.2875L8.16094 20.2313L6.43594 22.0782L6.02344 22.2422L5.30625 21.8719L5.37187 21.211L5.775 20.6204L8.16094 17.5829L9.6 15.7032L10.5281 14.6157L10.5234 14.4563H10.4672L4.12969 18.5579L3 18.7079L2.5125 18.2532L2.57344 17.5079L2.80312 17.2641L4.71094 15.9516C4.71563 15.9469 4.71094 15.9563 4.71094 15.9563Z"/>
</mask>
<path d="M4.71094 15.9563L9.43125 13.3079L9.51094 13.0782L9.43125 12.9516H9.20156L8.40937 12.9047L5.70938 12.8297L3.375 12.7313L1.10625 12.6094L0.534375 12.4875L0 11.7844L0.05625 11.4329L0.534375 11.1141L1.21875 11.175L2.7375 11.2782L5.01562 11.4375L6.66562 11.536L9.1125 11.7891H9.50156L9.55781 11.6344L9.42188 11.536L9.31875 11.4375L6.96094 9.8438L4.41094 8.1563L3.075 7.18599L2.35313 6.6938L1.9875 6.22974L1.82812 5.22192L2.48438 4.50005L3.36563 4.56099L3.59062 4.62192L4.48594 5.3063L6.39375 6.78286L8.88281 8.61567L9.24844 8.92036L9.39375 8.81724L9.4125 8.74224L9.24844 8.47036L7.89375 6.02349L6.45 3.53442L5.80781 2.50317L5.63906 1.87505C5.57344 1.63599 5.54062 1.39224 5.53594 1.1438L6.28594 0.131299L6.69844 -0.00463867L7.69219 0.131299L8.11406 0.496924L8.73281 1.91255L9.73594 4.1438L11.2922 7.17192L11.7469 8.07192L11.9906 8.90161L12.0797 9.15474H12.2391V9.00942L12.3656 7.30317L12.6047 5.20786L12.8344 2.51255L12.9141 1.75317L13.2891 0.843799L14.0344 0.351611L14.6203 0.632861L15.0984 1.31724L15.0328 1.76255L14.7469 3.61411L14.1891 6.51567L13.8234 8.4563H14.0344L14.2781 8.21255L15.2625 6.90474L16.9125 4.84224L17.6437 4.02192L18.4922 3.11724L19.0406 2.68599H20.0719L20.8312 3.81567L20.4891 4.98286L19.425 6.32817L18.5438 7.47192L17.2781 9.17349L16.4859 10.5329L16.5609 10.6407L16.7484 10.6219L19.6031 10.0172L21.1453 9.73599L22.9875 9.42192L23.8219 9.81099L23.9109 10.2047L23.5828 11.011L21.6141 11.4985L19.3031 11.9625L15.8625 12.7735L15.8203 12.8016L15.8672 12.8625L17.4141 13.0079L18.075 13.0454H19.6969L22.7156 13.2704L23.5078 13.7907L23.9813 14.4282L23.9016 14.911L22.6875 15.5297L21.0469 15.1407L17.2172 14.2313L15.9047 13.9032H15.7219V14.011L16.8141 15.0797L18.8203 16.8891L21.3281 19.2188L21.4547 19.7954L21.1312 20.25L20.7891 20.2032L18.5859 18.5485L17.7328 17.8032L15.8063 16.1813H15.6797V16.35L16.125 16.9969L18.4688 20.5172L18.5906 21.5954L18.4219 21.9469L17.8125 22.1579L17.1422 22.036L15.7969 20.1282L14.3812 17.9625L13.2375 16.0172L13.0969 16.0969L12.4219 23.3532L12.1078 23.7235L11.3766 24.0047L10.7719 23.5454L10.4484 22.8L10.7719 21.3235L11.1609 19.4016L11.475 17.8735L11.7609 15.975L11.9297 15.3422L11.9156 15.3L11.775 15.3188L10.3406 17.2875L8.16094 20.2313L6.43594 22.0782L6.02344 22.2422L5.30625 21.8719L5.37187 21.211L5.775 20.6204L8.16094 17.5829L9.6 15.7032L10.5281 14.6157L10.5234 14.4563H10.4672L4.12969 18.5579L3 18.7079L2.5125 18.2532L2.57344 17.5079L2.80312 17.2641L4.71094 15.9516C4.71563 15.9469 4.71094 15.9563 4.71094 15.9563Z" fill="#D97757" stroke="currentColor" stroke-width="0.0625" mask="url(#path-1-inside-1_407_645)"/>
</g>
<defs>
<clipPath id="clip0_407_645">
<rect width="24" height="24" fill="white"/>
</clipPath>
</defs>
</svg>
