<svg width="55" height="61" viewBox="0 0 55 61" fill="none" xmlns="http://www.w3.org/2000/svg">
<path fill-rule="evenodd" clip-rule="evenodd" d="M27.7119 0.126327C27.3091 0.332077 26.1253 1.032 20.6165 4.32164L15.8762 7.15232L15.9377 14.7104C15.9714 18.8675 16.0147 22.6217 16.0338 23.0532C16.053 23.4847 16.0716 24.4174 16.0753 25.1257L16.0819 26.4137L17.4314 27.2785C19.4768 28.5892 22.2801 30.3594 22.3104 30.3594C22.3252 30.3594 22.3656 27.1267 22.3999 23.1758C22.4343 19.2248 22.4897 14.6879 22.523 13.0938L22.5836 10.1953L24.6081 9.09498C25.7216 8.4898 26.9211 7.8345 27.2734 7.63875L27.9142 7.28285L28.7729 7.85391L29.6316 8.42487L30.0461 8.19235C30.274 8.06437 31.5331 7.30698 32.8441 6.50928C34.1552 5.71148 35.3586 4.99116 35.5186 4.90849C35.6786 4.82582 35.8094 4.71765 35.8094 4.66812C35.8094 4.58496 34.2191 3.62045 29.8225 1.03759C28.8778 0.482613 28.0826 0.0166853 28.0554 0.00226909C28.0282 -0.0121471 27.8737 0.0436542 27.7119 0.126327ZM10.9783 9.92945C9.97965 10.553 7.77135 11.9262 6.07096 12.981C4.37056 14.0357 2.74741 15.045 2.46406 15.2236L1.94879 15.5484V22.2543V28.9601L3.24924 29.7421C3.96453 30.1723 6.20591 31.5299 8.23018 32.7592C17.398 38.3264 18.064 38.717 18.2422 38.6312C18.337 38.5856 19.1477 38.1069 20.0436 37.5675L21.6726 36.5868L21.6499 34.925L21.6272 33.2632L19.468 31.8942C18.2804 31.1412 15.233 29.2278 12.6959 27.6421L8.08297 24.759L8.03389 21.9938C7.99188 19.6256 8.00592 19.2053 8.13204 19.0666C8.24638 18.9408 10.6234 17.3921 12.7204 16.0771L12.9412 15.9387V12.3614C12.9412 10.3939 12.9082 8.78675 12.8676 8.78989C12.8271 8.79312 11.9769 9.30593 10.9783 9.92945ZM40.6677 11.0492C39.3444 11.7733 38.5456 12.199 34.2391 14.4752C32.3767 15.4595 30.2568 16.5827 29.528 16.9712C28.7993 17.3598 27.7393 17.9247 27.1725 18.2265C26.6057 18.5284 25.7445 18.9912 25.2586 19.2551L24.3753 19.7347L24.349 21.9998L24.3226 24.2648L25.5968 24.9663L26.8708 25.6677L29.7943 24.1048C36.9598 20.2739 39.666 18.8216 40.7402 18.2305C41.4629 17.8328 41.9569 17.618 42.0652 17.6542C42.3828 17.7603 47.0471 20.6145 47.0536 20.7067C47.0571 20.7567 47.0955 21.9288 47.1389 23.3115C47.1824 24.6942 47.2457 25.8686 47.2797 25.9213C47.3404 26.0151 53.0626 29.2047 53.4033 29.3346C53.5639 29.3959 53.5723 29.3216 53.5226 28.2863C53.447 26.7129 53.1984 20.8335 53.1201 18.769L53.0543 17.0347L50.836 15.7358C46.4637 13.1757 41.7846 10.4514 41.7662 10.4549C41.7558 10.4569 41.2615 10.7243 40.6677 11.0492ZM35.169 24.4618C31.9406 26.1282 30.6089 26.848 30.6088 26.927C30.6087 26.9886 38.0588 31.2358 46.8986 36.2137C48.1348 36.9098 48.0156 36.521 48.1693 40.3577C48.2558 42.516 48.2526 43.0652 48.153 43.1272C48.0846 43.1697 47.565 43.4735 46.9982 43.8024C46.4314 44.1312 45.9114 44.4542 45.8427 44.5201C45.7415 44.6172 45.7478 45.3298 45.8756 48.2629C45.9624 50.2555 46.0498 51.902 46.0696 51.9219C46.0894 51.9419 46.98 51.4381 48.0486 50.8024C49.7587 49.7851 51.0448 49.0223 53.8892 47.3387L54.6462 46.8907L54.6009 46.348C54.5761 46.0495 54.4434 43.1133 54.306 39.8231C54.1687 36.5329 54.0357 33.7057 54.0105 33.5406C53.9671 33.2566 53.7185 33.1042 49.4263 30.7306C46.9302 29.3503 44.1151 27.8029 43.1704 27.2921C38.5537 24.7953 36.8313 23.8554 36.7394 23.7828C36.6818 23.7373 36.0095 24.0279 35.169 24.4618ZM33.2431 32.2846L31.8054 33.1132L31.7422 34.5068C31.6584 36.3553 31.2947 48.8082 31.2947 49.8298V50.631L28.7674 52.1262L26.2401 53.6214L23.5743 52.2923L20.9085 50.9631L20.09 51.4602C19.6399 51.7336 18.3221 52.5094 17.1615 53.1841C16.001 53.8588 14.9934 54.4649 14.9225 54.531C14.8189 54.6275 15.2712 54.9166 17.229 56.0049C18.5684 56.7495 20.8568 58.0299 22.3142 58.8502C25.5379 60.6644 25.9737 60.8874 26.1869 60.8317C26.2786 60.8077 28.9177 59.2565 32.0516 57.3843L37.7496 53.9805L37.811 51.4131C37.8448 50.0009 37.8949 47.9849 37.9221 46.9331C37.9494 45.8813 38.0144 43.0128 38.0666 40.5586C38.1188 38.1044 38.1885 35.4776 38.2214 34.7213L38.2813 33.3461L36.6186 32.3922C35.7041 31.8674 34.894 31.4422 34.8183 31.4471C34.7427 31.4519 34.0338 31.8288 33.2431 32.2846ZM27.4179 35.9731C26.8781 36.2995 24.0073 38.0012 21.0383 39.7546C18.0694 41.5078 14.7569 43.4691 13.6773 44.1128L11.7144 45.283L11.1255 44.9829C10.8016 44.8179 9.63123 44.201 8.52463 43.6121L6.51262 42.5414L6.46354 41.2317L6.41447 39.922L5.6293 39.5C3.07562 38.1276 0.144952 36.6404 0.0941124 36.6911C0.0615277 36.7235 0.0226627 38.9246 0.00774434 41.5823C-0.0137498 45.4107 0.00656646 46.4352 0.105891 46.5145C0.225434 46.6099 2.1815 47.6813 8.45416 51.0874C10.0078 51.931 11.3455 52.6212 11.4267 52.6212C11.508 52.6212 13.483 51.4788 15.8157 50.0824C20.9482 47.0101 24.3834 44.9645 26.6925 43.6053L28.4207 42.5879L28.484 41.0584C28.5766 38.8188 28.5745 35.4178 28.4806 35.3973C28.436 35.3875 27.9577 35.6466 27.4179 35.9731Z" fill="#BE7A43"/>
</svg>
